<?xml version="1.0" standalone="no"?>
<!DOCTYPE svg PUBLIC "-//W3C//DTD SVG 20010904//EN"
 "http://www.w3.org/TR/2001/REC-SVG-20010904/DTD/svg10.dtd">
<svg version="1.0" xmlns="http://www.w3.org/2000/svg"
 width="25.000000pt" height="25.000000pt" viewBox="0 0 25.000000 25.000000"
 preserveAspectRatio="xMidYMid meet">
<metadata>
Created by potrace 1.16, written by Peter Selinger 2001-2019
</metadata>
<g transform="translate(0.000000,25.000000) scale(0.002083,-0.002083)"
fill="#000000" stroke="none">
<path d="M0 6288 l0 -5713 66 120 c125 230 163 311 203 432 74 224 215 478
446 798 40 55 79 114 88 130 8 17 25 93 37 170 64 414 161 694 348 1005 130
217 197 297 456 554 311 308 397 374 641 493 120 58 308 127 415 151 25 6 95
16 155 22 77 8 140 22 210 46 241 85 313 106 409 120 55 8 125 22 154 30 52
15 281 128 412 204 36 20 95 53 131 73 37 20 111 61 164 92 53 31 197 106 318
167 216 108 221 111 199 127 -69 49 -94 85 -132 191 -15 41 -45 120 -67 175
-118 293 -308 886 -360 1122 -19 88 -21 206 -9 561 6 204 5 234 -8 248 -15 14
-16 14 -17 -3 -6 -126 -9 -135 -33 -106 -9 10 -29 32 -45 50 -21 23 -32 49
-39 95 -24 135 -15 218 24 241 15 9 19 67 5 67 -16 0 -30 -26 -25 -47 4 -13 0
-22 -10 -26 -9 -4 -16 -2 -16 4 0 6 -5 7 -11 4 -12 -8 -32 15 -54 60 -17 34
-57 93 -80 116 -33 35 -10 159 30 159 8 0 37 20 64 44 27 24 66 50 85 57 34
12 36 16 36 55 0 24 5 46 11 49 6 5 9 -7 7 -32 -2 -22 1 -37 7 -36 17 3 5 -68
-12 -74 -9 -4 -20 1 -25 11 -14 24 -31 7 -64 -63 -15 -31 -32 -59 -38 -63 -7
-5 -7 -8 -1 -8 6 0 21 7 33 16 40 27 45 10 8 -26 -20 -19 -36 -40 -36 -47 0
-6 -13 -20 -30 -29 -24 -15 -28 -22 -23 -43 7 -29 42 -81 55 -81 4 0 8 10 8
23 0 34 13 47 53 54 38 6 52 -9 20 -21 -14 -6 -14 -9 6 -27 26 -25 23 -27 50
34 28 62 43 138 29 154 -7 9 -6 23 4 45 8 19 13 58 12 93 -1 35 4 74 13 95 46
107 62 171 56 222 -6 46 -4 51 11 45 10 -4 22 -7 27 -7 12 0 11 -57 -2 -81
-10 -19 -9 -20 11 -9 11 6 23 24 27 41 5 27 23 42 23 19 0 -19 57 -10 81 13
13 12 46 50 74 85 43 56 53 63 76 58 19 -4 32 1 49 19 20 21 22 32 18 85 -3
44 -10 66 -25 82 -22 21 -43 18 -43 -7 0 -23 -41 -95 -59 -105 -10 -5 -26 -7
-37 -5 -10 2 -22 4 -26 4 -5 1 -8 12 -8 26 0 14 -3 25 -8 25 -7 0 -13 -13 -53
-117 -37 -97 -47 -108 -113 -107 -54 1 -56 0 -56 -25 -1 -22 -3 -20 -15 13
-20 58 -58 74 -47 21 3 -20 0 -25 -15 -25 -11 0 -29 -11 -41 -25 l-22 -25 21
-21 c16 -16 19 -30 17 -67 l-3 -47 -42 -1 c-40 -1 -66 -16 -134 -79 -23 -22
-29 -19 -29 14 0 18 13 47 35 75 35 46 35 47 18 79 -25 47 -25 260 0 302 9 17
21 37 26 45 5 8 16 32 25 52 19 46 66 69 124 61 32 -4 44 -1 61 16 11 11 21
30 21 41 0 11 5 20 10 20 6 0 10 5 10 10 0 15 -56 12 -69 -3 -6 -8 -9 -28 -7
-45 2 -24 -1 -32 -12 -32 -21 0 -10 105 16 139 14 21 16 32 9 58 -15 50 0 136
33 185 28 42 48 55 163 108 27 12 52 32 57 44 4 12 15 28 24 35 9 7 16 22 16
31 0 10 19 36 43 57 24 21 61 64 83 97 44 66 117 136 167 159 18 9 39 26 45
39 7 13 37 36 66 52 49 27 60 29 128 23 56 -4 78 -2 93 10 15 11 46 14 125 12
64 -2 113 2 126 9 41 22 97 24 134 5 l35 -18 51 50 c74 74 195 125 298 125 20
0 47 11 72 29 51 38 116 55 179 47 95 -13 127 -28 243 -121 50 -40 94 -45 176
-20 86 26 163 15 366 -53 73 -24 192 -94 223 -132 19 -22 35 -30 59 -30 46 -1
101 -22 143 -56 144 -117 255 -230 255 -261 0 -7 18 -31 40 -53 21 -21 51 -62
65 -90 14 -28 31 -52 38 -54 115 -32 157 -63 193 -141 27 -58 32 -91 9 -61
-10 13 -15 15 -15 6 0 -10 -4 -10 -18 2 -22 20 -83 51 -88 45 -2 -2 35 -39 83
-83 127 -114 153 -142 153 -169 0 -13 8 -32 18 -42 30 -30 88 -107 95 -125 8
-22 -11 -24 -20 -2 -9 25 -45 33 -101 23 -32 -6 -78 -6 -119 -1 -46 6 -70 6
-75 -1 -10 -17 -65 12 -115 60 -25 23 -49 43 -54 43 -5 0 -9 7 -9 15 0 8 -4
15 -10 15 -5 0 -10 -13 -10 -29 0 -18 -10 -41 -26 -58 -14 -15 -23 -23 -20
-16 6 11 -12 62 -25 73 -3 3 -13 19 -22 35 -42 81 -59 123 -62 160 -4 52 -23
115 -35 115 -18 0 -19 -18 -5 -71 7 -30 10 -58 5 -63 -4 -4 -11 0 -14 11 -3
10 -23 24 -47 31 -37 11 -44 11 -60 -4 -22 -20 -23 -26 -8 -77 9 -32 18 -42
65 -64 30 -16 57 -36 60 -48 4 -11 26 -42 50 -69 24 -26 44 -55 44 -62 0 -11
4 -12 19 -4 31 16 45 12 85 -25 21 -19 43 -32 49 -28 6 3 -1 14 -16 25 -27 20
-35 42 -18 52 19 12 110 -25 138 -57 16 -17 44 -45 63 -61 55 -44 126 -172
137 -243 8 -57 70 -165 108 -192 23 -15 49 -52 79 -111 43 -82 82 -197 71
-208 -3 -3 -5 -1 -5 5 0 6 -12 14 -26 17 -15 4 -31 19 -40 39 -8 18 -26 48
-41 67 l-25 35 7 -30 c4 -16 10 -75 12 -130 3 -82 1 -104 -12 -120 -16 -19
-16 -19 -12 8 6 37 -12 34 -47 -8 -27 -32 -56 -50 -41 -25 3 6 1 10 -4 10 -6
0 -11 -4 -11 -10 0 -5 -5 -10 -11 -10 -6 0 -8 9 -4 23 6 21 6 21 -10 3 -11
-14 -18 -17 -26 -9 -8 8 -5 31 10 84 12 41 15 67 9 61 -16 -16 -65 -15 -70 0
-3 7 -1 30 3 51 4 22 5 56 2 76 -6 54 42 124 62 91 10 -16 26 -11 24 8 -3 33
1 65 8 59 3 -4 12 -2 20 4 15 13 18 79 3 79 -5 0 -10 -6 -10 -14 0 -18 -39
-31 -52 -18 -7 7 -3 17 12 32 l22 22 -44 22 c-25 12 -54 32 -66 44 -12 12 -28
22 -36 22 -7 0 -25 9 -40 21 -21 16 -26 17 -26 5 0 -8 4 -17 9 -21 18 -11 73
-85 63 -85 -5 0 -38 27 -72 61 -34 33 -64 58 -67 56 -2 -3 9 -28 25 -57 17
-29 27 -60 25 -71 -5 -19 -23 -27 -23 -11 0 5 -18 15 -40 22 -22 7 -40 18 -41
24 0 6 -14 22 -31 36 l-31 24 7 -27 c8 -33 -6 -35 -26 -4 -29 44 -88 202 -88
236 0 21 10 47 26 68 19 25 22 33 10 33 -9 0 -16 8 -16 19 0 32 -33 62 -72 66
-23 2 -56 18 -91 43 l-54 40 -15 -31 c-31 -62 -42 -147 -16 -131 5 3 42 8 83
10 100 5 119 -10 120 -92 l0 -59 -64 -3 c-49 -2 -68 1 -82 14 -28 25 -35 10
-10 -22 50 -64 -4 -35 -95 51 -18 18 -36 30 -39 27 -3 -3 -5 1 -5 10 0 24 -34
50 -48 36 -15 -15 -78 15 -84 40 -5 18 -65 41 -146 57 l-33 7 15 -35 c16 -40
13 -47 -21 -47 -13 0 -23 -6 -23 -13 0 -7 -13 -26 -29 -41 -29 -28 -29 -28
-60 -10 -22 13 -29 23 -25 36 3 12 1 18 -8 16 -7 -2 -21 15 -32 37 -21 42
-181 215 -199 215 -6 0 -20 8 -31 18 -25 22 -107 54 -115 46 -3 -4 0 -9 7 -11
12 -5 47 -52 92 -127 31 -51 10 -38 -32 20 -17 25 -46 54 -64 64 -33 21 -104
27 -104 10 0 -5 -7 -10 -14 -10 -20 0 -59 -39 -74 -73 -6 -15 -18 -30 -26 -33
-8 -3 -12 -13 -9 -24 4 -13 -4 -23 -27 -35 -45 -23 -113 -11 -171 30 -64 46
-104 65 -133 65 -14 0 -28 5 -32 11 -9 14 -110 2 -139 -17 -26 -17 -38 -8 -24
18 13 24 5 35 -14 20 -20 -17 -28 -3 -21 33 5 27 0 39 -28 71 -45 53 -58 63
-92 71 -26 5 -27 7 -12 18 15 11 13 14 -11 23 -63 25 -123 18 -163 -18 -28
-25 -30 -30 -16 -36 16 -6 16 -7 0 -19 -27 -19 0 -27 47 -15 59 16 69 0 22
-36 -20 -15 -46 -37 -57 -48 -19 -19 -18 -19 40 -37 32 -10 67 -19 76 -19 10
0 33 -13 51 -30 19 -16 40 -30 46 -30 6 0 11 -4 11 -10 0 -5 -4 -10 -10 -10
-5 0 -10 -10 -10 -22 0 -21 0 -21 -15 -2 -13 17 -14 17 -15 2 0 -24 -34 -23
-57 0 -47 49 -74 56 -170 43 -122 -15 -127 -15 -164 16 l-32 28 7 -30 c8 -30
39 -70 66 -85 9 -5 37 -4 64 1 27 5 51 7 53 5 9 -9 -99 -68 -116 -63 -14 3
-21 -2 -25 -19 -9 -34 -49 -41 -81 -15 -36 28 -87 99 -75 106 5 3 22 -14 39
-38 31 -46 86 -71 102 -46 10 17 0 39 -17 39 -17 0 -51 52 -64 100 -8 29 -5
42 18 88 37 75 82 112 132 112 22 0 40 -1 40 -3 0 -1 -9 -20 -20 -42 -11 -21
-18 -40 -16 -43 2 -2 18 4 35 12 16 9 41 16 55 16 37 0 41 18 12 49 -14 15
-26 35 -26 45 0 9 -5 26 -11 37 -8 16 -4 33 21 83 17 35 40 74 51 87 l21 24
24 -30 c13 -16 24 -24 24 -17 0 7 11 25 25 40 14 15 25 29 25 33 0 3 -14 15
-30 27 -17 13 -30 28 -30 35 0 7 -18 30 -39 50 -22 21 -43 47 -46 58 -8 25
-43 39 -96 39 -32 0 -39 -4 -39 -19 0 -11 -5 -21 -12 -23 -8 -3 -7 -14 5 -38
22 -42 21 -47 -2 -26 -10 9 -25 14 -35 10 -15 -6 -14 -10 9 -34 15 -16 24 -33
21 -39 -4 -5 3 -15 14 -21 27 -15 25 -38 -4 -46 -31 -7 -43 -34 -17 -34 26 0
51 -10 51 -21 0 -5 -7 -9 -15 -9 -18 0 -138 37 -182 56 -44 20 -51 18 -46 -13
4 -22 2 -25 -6 -13 -6 8 -11 25 -11 38 0 12 -8 35 -17 49 -22 34 -24 70 -3 79
12 5 9 8 -10 14 -47 15 -67 11 -74 -12 -3 -13 -1 -27 4 -32 16 -16 12 -21 -22
-22 -30 -1 -68 -32 -68 -55 0 -5 22 -9 50 -9 47 0 50 -2 66 -36 l18 -37 -32
-28 c-18 -16 -41 -29 -52 -29 -15 0 -20 -7 -20 -28 l0 -29 -103 2 c-105 1
-149 12 -111 26 15 5 11 8 -19 14 -20 4 -40 11 -42 16 -3 4 -12 6 -20 4 -49
-16 -48 -14 -24 -36 21 -18 22 -20 4 -14 -78 27 -93 24 -80 -15 4 -12 -1 -26
-15 -40 -15 -15 -19 -28 -14 -48 11 -50 24 -77 46 -91 19 -12 20 -11 15 8 -3
12 -1 21 3 21 5 0 15 3 24 6 11 4 16 0 16 -14 0 -12 -5 -24 -11 -28 -6 -3 -8
-17 -5 -30 4 -14 2 -33 -4 -43 -8 -17 -5 -19 25 -23 27 -3 39 1 55 19 24 27
45 31 36 6 -6 -13 -1 -12 17 5 13 13 40 27 59 32 29 8 37 17 52 61 14 38 30
59 65 85 25 18 54 34 64 34 17 0 17 -2 3 -22 -23 -32 -20 -55 8 -62 13 -3 26
-15 29 -26 8 -31 33 -24 57 15 24 39 43 52 115 78 150 54 158 43 45 -64 -67
-64 -91 -93 -86 -105 8 -21 -15 -74 -31 -74 -13 0 -17 -17 -14 -52 4 -35 -9
-17 -20 27 -12 47 -29 69 -29 38 -1 -15 -3 -13 -14 6 -12 22 -14 23 -23 6 -10
-16 -12 -16 -36 0 -28 18 -49 13 -40 -10 3 -9 -1 -15 -10 -15 -13 0 -15 -16
-15 -92 1 -86 -1 -93 -25 -114 -48 -41 3 -47 96 -10 34 14 76 28 92 32 17 4
35 11 42 16 13 10 73 -10 73 -24 0 -12 -28 -10 -35 2 -3 6 -11 10 -18 10 -6 0
-4 -8 6 -17 15 -15 33 -18 123 -15 99 3 164 -9 164 -30 0 -11 -18 -10 -25 2
-11 18 -26 10 -23 -12 2 -19 11 -24 48 -29 25 -3 65 -13 89 -22 24 -8 57 -13
75 -10 36 6 116 -13 116 -27 0 -6 6 -10 13 -10 19 0 50 -36 43 -49 -4 -5 -2
-12 4 -16 5 -3 10 -1 10 4 0 6 4 11 9 11 4 0 16 -29 26 -65 9 -35 22 -63 28
-62 6 1 13 -8 15 -20 3 -18 10 -23 33 -23 16 0 39 -9 51 -20 16 -15 18 -20 7
-20 -8 0 -20 5 -27 12 -20 20 -38 -6 -26 -39 8 -25 15 -28 54 -29 27 -1 48 -8
55 -18 7 -9 22 -16 33 -16 12 0 26 -9 32 -20 6 -11 15 -18 20 -15 5 3 12 -6
16 -20 4 -17 13 -25 28 -25 26 0 41 -10 49 -32 4 -11 17 -18 32 -18 14 0 27 0
30 0 3 0 16 -10 29 -21 20 -17 24 -28 19 -52 -6 -28 -4 -30 19 -24 56 14 108
-40 93 -96 -5 -17 -4 -19 4 -7 9 12 11 10 12 -10 1 -14 1 -28 1 -31 -1 -4 8
-4 20 -1 15 3 19 1 16 -9 -4 -10 -19 -13 -57 -11 -29 2 -58 -2 -66 -8 -10 -8
-23 -6 -55 10 -35 18 -52 20 -94 15 -28 -4 -60 -11 -71 -15 -13 -5 -28 -3 -40
7 -16 11 -39 13 -106 7 l-86 -6 -7 26 c-3 14 -11 26 -16 26 -6 0 -10 5 -10 10
0 6 6 10 14 10 7 0 19 7 26 15 17 20 40 19 41 -2 0 -13 3 -11 10 6 8 19 6 27
-6 34 -8 4 -13 12 -10 17 6 9 -46 50 -64 50 -14 0 -15 -37 -1 -42 14 -5 17
-50 3 -55 -7 -2 -25 14 -40 36 -15 22 -33 40 -40 41 -6 0 -20 16 -32 35 -14
23 -25 33 -36 29 -8 -4 -15 -1 -15 6 0 9 -7 7 -20 -5 -11 -10 -20 -24 -20 -32
0 -9 -11 -13 -32 -13 -42 1 -120 -8 -127 -16 -3 -3 1 -9 9 -14 11 -7 3 -9 -25
-7 -28 1 -39 -2 -37 -11 2 -9 -8 -12 -38 -8 -22 2 -40 0 -40 -5 0 -5 -16 -9
-34 -9 -19 0 -56 -11 -82 -25 -26 -14 -53 -25 -61 -25 -8 0 -24 -9 -36 -21
l-22 -20 -5 23 c-4 16 -8 19 -14 10 -4 -6 -16 -12 -27 -12 -10 0 -34 -8 -52
-17 l-32 -18 8 -56 c8 -49 16 -64 58 -109 27 -29 51 -63 54 -76 12 -57 19 -82
29 -105 10 -23 1 -140 -12 -148 -14 -8 -17 -97 -7 -163 10 -60 0 -99 -21 -91
-13 5 -15 16 -11 51 3 24 11 48 18 53 8 5 10 9 4 9 -35 0 -48 -67 -27 -145 6
-22 7 -42 2 -45 -10 -6 -1 -60 10 -60 4 0 11 8 14 18 3 9 13 28 21 42 11 19
15 21 15 8 0 -10 5 -18 10 -18 6 0 10 7 10 16 0 9 6 14 13 11 15 -5 16 -77 0
-77 -6 0 -9 -8 -6 -20 3 -10 -2 -26 -10 -34 -9 -9 -13 -25 -10 -37 7 -24 32
-37 42 -22 15 25 181 19 181 -6 0 -5 9 -18 20 -31 11 -13 20 -29 20 -35 0 -16
-47 -48 -54 -37 -3 5 -40 7 -83 6 -43 -1 -89 3 -103 9 -14 6 -32 11 -40 12
-26 2 -104 28 -120 40 -8 7 -35 11 -59 11 -35 -2 -46 -7 -57 -26 -7 -14 -13
-22 -14 -18 0 12 -135 -41 -135 -53 0 -7 -6 -14 -12 -16 -7 -3 -13 0 -13 6 0
6 -4 11 -10 11 -10 0 -2 -27 14 -48 50 -61 93 -86 193 -112 46 -11 47 -14 62
-109 10 -63 20 -88 23 -60 3 31 4 34 11 46 4 6 16 9 28 6 12 -4 25 0 30 8 8
11 13 10 27 -7 10 -11 23 -19 29 -17 6 2 31 -6 55 -18 55 -28 88 -31 88 -7 0
15 9 18 54 18 29 0 67 -7 82 -15 28 -14 28 -15 5 -15 -19 0 -22 -4 -18 -22 8
-27 -9 -58 -31 -58 -9 0 -30 7 -46 15 -15 8 -33 15 -39 15 -16 0 -115 49 -122
60 -10 16 -19 12 -69 -26 -25 -19 -50 -33 -55 -29 -5 3 -16 -2 -25 -10 -12
-13 -13 -21 -4 -40 6 -14 9 -27 6 -30 -8 -8 -38 6 -38 17 0 6 -8 17 -17 25
-10 8 -12 11 -4 7 9 -4 12 -3 8 4 -9 13 -49 3 -60 -15 -4 -7 -15 -13 -22 -13
-8 0 -15 -5 -15 -11 0 -5 5 -7 10 -4 6 4 10 -5 10 -21 0 -23 -3 -25 -22 -19
-62 19 -87 -1 -95 -75 -6 -65 8 -77 53 -49 17 10 37 19 44 19 7 0 32 16 56 35
45 37 97 47 118 21 13 -17 63 -29 70 -18 3 5 45 2 93 -6 48 -8 117 -15 153
-16 36 -1 77 -3 91 -4 31 -2 104 -57 89 -67 -5 -3 -14 -4 -20 0 -5 3 -18 0
-29 -7 -15 -9 -23 -9 -34 0 -9 8 -34 10 -73 6 -51 -5 -61 -4 -77 14 -15 17
-23 18 -55 10 -20 -5 -50 -12 -67 -15 -16 -2 -44 -11 -62 -19 -35 -16 -94 -19
-108 -5 -10 9 -91 -13 -109 -29 -5 -6 -2 -28 9 -55 21 -56 42 -66 133 -64 69
2 218 -26 228 -42 3 -5 -2 -9 -11 -9 -10 0 -15 -7 -13 -17 2 -11 22 -21 66
-31 34 -7 62 -18 62 -23 0 -5 9 -9 21 -9 12 0 17 4 13 11 -4 8 4 9 27 4 46
-10 51 -14 44 -35 -4 -12 2 -27 16 -41 15 -15 24 -18 27 -11 5 17 43 15 57 -4
29 -41 -25 -113 -62 -82 -27 22 -249 24 -274 2 -8 -8 -27 -13 -40 -13 -13 1
-37 -4 -54 -11 -16 -6 -55 -15 -86 -20 -46 -7 -63 -15 -93 -46 -20 -20 -36
-42 -36 -48 0 -6 -7 -24 -15 -39 -13 -25 -13 -31 0 -43 8 -8 20 -32 26 -53 12
-39 78 -119 115 -139 51 -27 252 -80 389 -103 39 -6 81 -18 95 -27 55 -34 269
-210 389 -320 33 -30 33 -32 12 -32 -29 0 -63 -18 -56 -31 4 -6 13 -5 25 1 42
23 53 4 21 -36 -12 -15 -17 -33 -13 -47 5 -20 4 -20 -11 -8 -16 13 -19 9 -16
-16 0 -4 -9 -10 -20 -15 -16 -5 -21 -16 -21 -42 0 -45 -20 -51 -64 -18 -29 23
-35 33 -36 65 0 49 -13 73 -45 81 -15 4 -25 14 -25 24 0 11 -9 17 -26 19 -30
1 -46 20 -38 46 3 10 0 17 -8 17 -7 0 -19 9 -26 20 -7 12 -23 20 -38 20 -15 0
-33 8 -40 17 -7 10 -16 15 -20 11 -4 -5 0 -16 9 -26 17 -19 24 -78 8 -68 -8 6
-41 -83 -41 -113 0 -9 7 -29 15 -45 8 -15 15 -37 15 -47 0 -11 4 -19 9 -19 14
0 22 -65 11 -95 -6 -14 -7 -32 -3 -38 4 -7 6 -22 4 -34 -1 -16 3 -23 14 -23
13 0 14 -4 5 -20 -15 -27 -9 -82 9 -88 10 -3 12 3 9 27 -3 18 -1 34 2 36 4 3
10 -14 14 -36 5 -28 2 -46 -9 -62 -18 -25 -20 -51 -4 -41 9 5 10 -4 5 -31 -6
-28 -4 -36 6 -33 8 3 18 -10 25 -31 15 -44 16 -64 3 -56 -6 3 -7 -1 -4 -9 3
-9 2 -16 -4 -16 -5 0 -12 -9 -15 -20 -4 -17 -2 -20 15 -14 16 5 20 3 15 -9 -4
-11 -2 -14 7 -11 8 3 17 1 21 -5 3 -6 15 -11 26 -11 14 0 19 -7 20 -27 0 -23
2 -25 8 -9 6 16 10 13 25 -23 13 -34 21 -42 36 -38 11 3 21 -1 24 -9 3 -8 17
-14 32 -14 20 0 41 -15 78 -53 45 -47 95 -87 110 -87 3 0 3 8 0 18 -3 9 3 5
12 -10 10 -16 24 -28 31 -28 21 0 15 38 -9 55 l-23 17 25 -7 c34 -11 53 -32
47 -55 -3 -11 0 -23 5 -27 7 -3 8 -1 4 5 -4 7 -1 12 8 12 8 0 16 -4 18 -9 2
-5 15 -13 30 -16 23 -6 32 -1 57 25 39 44 55 105 47 184 -7 70 6 149 34 211
23 51 43 125 36 132 -3 3 1 18 9 34 8 15 15 37 15 49 0 12 15 45 34 73 25 40
42 55 70 64 37 12 45 6 23 -16 -10 -10 -6 -11 18 -6 17 4 36 14 43 23 11 14
12 14 12 -1 0 -10 7 -15 19 -12 17 3 19 -4 20 -72 1 -44 -4 -82 -10 -90 -7 -7
-13 -32 -15 -54 -1 -22 -8 -47 -15 -55 -6 -8 -9 -17 -5 -21 3 -3 6 -1 6 5 0 7
4 12 9 12 12 0 1 -74 -11 -78 -14 -6 -9 -42 7 -42 21 0 19 -17 -5 -37 -25 -21
-25 -32 -2 -49 16 -12 16 -13 0 -19 -18 -7 -15 -29 10 -57 8 -10 10 -18 4 -18
-6 0 -20 -16 -33 -36 -22 -36 -22 -37 -4 -50 10 -8 27 -14 38 -14 14 0 18 -5
14 -20 -7 -28 10 -35 23 -10 10 19 13 19 33 5 29 -21 60 -20 32 1 -16 12 -17
16 -6 23 8 5 9 11 3 15 -16 10 10 54 35 61 13 3 20 11 17 19 -3 8 7 18 28 26
57 21 93 40 81 40 -26 0 -11 36 27 65 22 17 39 37 39 45 -3 48 -1 50 54 50 31
0 61 6 75 16 12 8 26 13 31 10 4 -3 25 12 45 34 22 24 42 37 51 34 8 -4 12
-10 9 -15 -3 -5 0 -9 6 -9 6 0 19 14 28 30 9 17 25 33 35 36 12 4 17 13 14 24
-6 23 3 36 31 44 18 6 22 4 22 -13 0 -12 -6 -21 -16 -21 -14 0 -14 -2 1 -17
14 -14 18 -14 26 -2 5 8 9 19 9 26 0 7 6 16 14 20 7 4 16 26 18 48 3 22 8 47
12 56 5 12 1 18 -13 22 -17 4 -21 13 -21 46 0 38 -14 57 -45 60 -5 1 -10 7
-10 14 0 6 6 11 13 9 14 -3 42 55 42 88 0 11 -6 20 -14 20 -8 0 -16 16 -20 43
-4 23 -12 56 -17 72 -16 46 3 87 38 83 20 -2 28 2 28 12 0 16 -6 17 -42 6 -19
-6 -26 0 -49 46 -19 37 -23 53 -14 56 8 3 2 13 -15 26 -25 20 -26 24 -14 45
12 19 12 23 -3 32 -10 6 -18 19 -18 29 0 22 10 26 27 9 16 -16 34 22 32 64 -5
70 1 117 15 117 8 0 17 -7 20 -16 9 -24 7 -64 -3 -64 -5 0 -7 -9 -4 -20 8 -31
23 -23 23 13 1 39 24 85 34 68 14 -22 24 -1 19 39 -5 33 -3 40 11 40 9 0 16 5
16 11 0 6 7 8 16 5 8 -3 13 -2 10 2 -3 5 -6 25 -8 45 -1 21 -6 37 -10 37 -4 0
-8 9 -8 20 0 13 -7 20 -19 20 -26 0 -34 15 -17 29 10 8 13 23 9 46 -4 23 -1
39 10 49 8 9 23 39 33 68 9 29 24 58 33 64 11 8 14 25 12 58 -1 28 2 46 8 46
6 0 11 17 11 39 0 22 6 44 15 51 8 7 15 16 15 21 0 11 -23 7 -32 -6 -11 -14
-10 27 1 44 6 9 11 10 15 2 12 -19 28 -12 24 12 -2 16 -9 21 -26 19 -22 -2
-23 1 -17 30 3 18 10 42 15 53 4 11 11 28 14 37 3 12 12 16 23 12 13 -4 12 0
-6 16 -18 15 -21 24 -13 32 8 8 15 8 26 -1 21 -18 39 -3 33 26 -4 22 -2 24 19
19 20 -5 24 -3 24 18 0 23 16 68 41 118 5 11 4 18 -4 21 -9 3 -9 9 -1 23 15
26 38 24 42 -3 2 -13 -1 -23 -7 -23 -6 0 -11 -7 -11 -15 0 -9 -7 -29 -15 -45
-13 -26 -13 -28 2 -26 9 2 19 8 21 14 2 7 8 12 14 12 5 0 6 -9 3 -20 -6 -18 2
-25 27 -21 4 0 10 -8 13 -19 4 -11 12 -20 20 -20 19 0 25 -23 25 -95 0 -43 -5
-68 -15 -79 -17 -16 -21 -86 -5 -86 6 0 10 18 10 40 0 29 4 40 15 40 10 0 15
-10 15 -27 0 -57 13 -103 27 -103 11 0 14 7 10 22 -4 12 -3 49 1 83 l6 60 7
-50 c4 -27 8 -93 8 -145 2 -178 36 -322 108 -465 72 -143 145 -213 350 -336
49 -29 159 -97 247 -152 87 -54 166 -101 175 -105 29 -11 200 -112 330 -195
70 -45 147 -93 169 -107 23 -14 99 -62 169 -108 367 -239 560 -345 744 -408
57 -19 208 -62 336 -94 127 -32 265 -73 306 -90 186 -77 370 -234 582 -494 22
-28 52 -63 66 -80 139 -167 311 -466 409 -714 81 -205 128 -368 151 -517 7
-44 25 -122 41 -174 18 -62 39 -173 58 -325 35 -267 51 -352 79 -421 l20 -50
0 5458 1 5457 -6000 0 -6000 0 0 -5712z m5935 2702 c11 -9 46 -34 77 -55 55
-36 61 -37 118 -32 47 4 60 2 60 -9 0 -8 4 -14 10 -14 5 0 7 -6 4 -13 -2 -7
10 -19 31 -29 36 -16 36 -16 46 9 8 22 11 23 26 12 15 -13 15 -12 4 8 -23 44
28 103 90 103 12 0 24 -12 33 -35 8 -19 26 -50 40 -67 13 -18 27 -46 31 -63 4
-16 9 -38 12 -48 4 -14 0 -17 -22 -13 -15 3 -33 13 -40 22 -16 23 -30 13 -60
-47 -45 -90 -76 -119 -143 -134 -45 -9 -131 42 -150 89 -13 32 -12 39 2 61 20
30 20 35 1 35 -20 0 -19 12 5 43 25 32 25 37 -2 37 -30 1 -108 36 -108 49 0
15 -142 81 -174 81 -14 0 -26 -4 -26 -8 0 -5 -18 -15 -40 -22 -64 -21 -109
-86 -110 -159 -1 -20 -3 -22 -9 -11 -5 8 -8 43 -7 77 1 54 5 66 31 93 39 41
58 51 125 65 62 13 113 4 145 -25z m1340 -259 c133 -77 178 -151 179 -299 l1
-82 -44 -39 c-46 -41 -77 -55 -86 -41 -3 5 4 35 16 67 44 120 35 143 -35 92
-34 -23 -52 -30 -75 -27 -17 2 -32 0 -34 -5 -2 -6 -12 -5 -26 3 -21 11 -23 10
-17 -5 3 -10 1 -24 -5 -31 -8 -10 -6 -24 10 -57 35 -72 22 -90 -27 -38 -15 16
-58 41 -96 55 -37 15 -75 34 -83 42 -11 11 -19 12 -26 5 -6 -6 -18 -11 -26
-12 -31 -1 -104 -54 -107 -77 -4 -26 15 -28 95 -11 75 16 147 -9 155 -53 1 -7
7 -22 13 -33 10 -19 8 -20 -64 -21 -60 -1 -81 -6 -105 -24 -36 -27 -50 -19
-17 10 33 29 83 50 118 50 36 0 49 16 21 25 -61 19 -187 -3 -176 -31 3 -8 -3
-18 -14 -24 -27 -15 -32 -12 -20 10 9 16 8 18 -5 14 -11 -4 -15 0 -15 17 -1
69 -83 79 -146 18 -35 -34 -53 -35 -35 -1 16 30 13 42 -9 42 -11 0 -20 -4 -20
-10 0 -6 -3 -9 -7 -9 -23 4 -34 -3 -31 -20 2 -10 -5 -28 -15 -39 -10 -10 -19
-33 -20 -51 -3 -39 -13 -40 -20 -2 -11 55 6 90 71 144 33 28 55 37 99 43 47 6
64 13 101 48 28 25 47 36 49 29 6 -17 38 14 47 45 9 27 26 29 33 2 3 -12 14
-20 27 -20 12 0 27 -5 33 -11 6 -6 39 -13 73 -16 l63 -6 -7 41 c-6 41 7 60 17
23 6 -26 56 -37 71 -15 11 14 14 15 19 2 6 -17 70 -19 75 -3 2 6 -11 14 -30
19 -18 6 -36 14 -39 19 -4 5 -16 4 -29 -3 -30 -16 -44 -1 -43 45 1 19 -3 38
-8 41 -22 13 -7 26 26 22 23 -3 32 -1 25 6 -27 27 -2 29 115 10 27 -5 26 -3
-15 21 -63 37 -80 54 -80 81 0 24 24 54 43 54 7 0 35 -13 62 -29z m333 -163
c11 -29 26 -70 34 -91 17 -50 69 -111 109 -127 32 -14 34 -13 120 31 9 4 19 5
23 2 7 -8 -4 -54 -17 -70 -25 -33 -138 0 -195 56 -32 33 -102 171 -109 218 -9
51 12 40 35 -19z m-866 -33 c-2 -14 -8 -28 -13 -31 -16 -9 -10 -34 6 -28 20 8
20 -29 0 -46 -50 -41 -145 -65 -160 -39 -4 6 -13 8 -20 5 -7 -2 -16 1 -19 9
-6 17 11 23 80 31 67 8 81 24 22 24 -47 1 -122 28 -80 29 12 1 22 5 22 9 0 4
27 14 60 21 33 7 65 20 71 27 19 23 37 17 31 -11z m762 -63 c3 -21 15 -47 26
-57 11 -10 25 -36 32 -57 7 -25 15 -35 21 -29 12 12 64 -50 73 -84 9 -35 -22
-95 -55 -108 -22 -8 -30 -19 -35 -46 -10 -60 -7 -241 5 -262 5 -11 8 -28 6
-37 -7 -29 -34 47 -41 117 -9 78 -22 102 -52 95 -20 -5 -23 -1 -26 28 l-4 33
-13 -30 c-22 -51 -27 -59 -38 -62 -6 -2 -16 18 -22 44 -7 26 -17 56 -22 65
-14 28 -11 58 12 95 12 18 18 40 15 48 -7 19 23 35 66 36 18 0 27 3 21 6 -15
6 -17 33 -3 33 5 0 15 -9 22 -20 20 -31 28 -24 23 19 -3 31 0 39 11 34 9 -3
14 2 14 16 0 12 -4 21 -8 21 -16 0 -52 79 -52 114 0 47 15 39 24 -12z m264
-298 c12 -8 22 -26 22 -39 0 -17 9 -29 30 -40 39 -20 60 -63 60 -121 0 -39 2
-45 14 -35 8 7 27 11 42 9 24 -2 31 -12 49 -58 26 -68 36 -122 25 -140 -6 -9
-20 -11 -49 -6 -27 4 -41 2 -41 -4 0 -6 -4 -8 -10 -5 -5 3 -10 15 -10 26 0 31
-71 120 -116 145 -11 5 -27 8 -37 6 -17 -3 -18 -11 -12 -77 5 -45 3 -75 -3
-79 -11 -7 -42 36 -42 59 0 8 -3 15 -8 15 -4 0 -13 15 -20 33 -7 17 -18 40
-23 49 -14 27 -11 152 6 191 14 34 54 65 41 32 -12 -32 16 -13 30 20 16 40 21
41 52 19z m253 -485 c17 -34 20 -53 16 -108 -3 -36 -8 -77 -10 -91 -3 -14 -6
-34 -7 -45 -1 -11 -6 -2 -10 20 -5 25 -4 45 2 53 16 19 1 27 -19 10 -25 -21
-57 -27 -79 -15 -19 10 -19 10 0 -11 11 -12 25 -22 32 -22 23 0 25 -19 2 -31
-19 -10 -25 -8 -50 20 -29 32 -35 51 -18 51 6 0 10 7 10 15 0 8 14 17 35 21
37 7 48 24 16 24 -18 0 -31 18 -31 43 0 7 4 6 9 -2 8 -12 14 -13 36 -3 24 11
27 17 21 43 -5 27 6 69 19 69 3 0 14 -19 26 -41z m-1668 -314 c1 -5 -9 -11
-23 -13 -61 -6 -90 -14 -90 -22 0 -14 34 -12 48 2 19 19 26 0 12 -29 -7 -16
-13 -33 -11 -40 1 -6 -3 -14 -9 -18 -5 -3 -10 1 -10 10 0 26 -17 8 -23 -25 -5
-25 -11 -30 -34 -30 -32 0 -47 -9 -55 -31 -4 -9 -23 -19 -42 -23 -20 -4 -36
-9 -36 -11 0 -2 -3 -11 -7 -21 -5 -13 -3 -15 8 -9 12 8 12 6 0 -8 -7 -9 -26
-17 -42 -17 -21 0 -27 -4 -22 -15 6 -16 -5 -16 -68 0 -53 13 -66 97 -23 141
20 20 33 25 54 20 21 -4 33 1 54 23 14 15 23 30 19 34 -3 4 -1 7 5 7 7 0 12
-6 12 -12 0 -8 3 -9 8 -3 10 14 49 35 65 35 8 0 22 9 31 19 12 13 38 22 72 27
30 3 54 11 54 16 0 12 50 6 53 -7z m1858 -80 c9 -43 9 -60 -1 -85 -7 -17 -16
-33 -20 -35 -14 -9 -60 14 -60 30 0 19 -10 19 -38 -1 -12 -8 -22 -12 -22 -8 0
3 -7 1 -15 -6 -13 -11 -18 -10 -29 6 -16 21 -5 34 23 27 9 -2 29 2 45 11 28
14 41 32 70 94 9 18 20 31 25 28 5 -4 15 -31 22 -61z m-2582 -250 c2 -3 -1 -5
-7 -5 -9 0 -9 -6 -1 -24 7 -14 17 -22 24 -20 7 3 19 -3 26 -13 8 -10 23 -20
34 -21 27 -5 33 -12 40 -47 5 -27 4 -28 -5 -7 -14 33 -34 22 -38 -19 -2 -19
-10 -48 -18 -66 -14 -31 -16 -31 -34 -16 -14 13 -16 20 -9 30 16 18 -11 26
-44 14 -18 -7 -25 -15 -21 -26 4 -10 0 -15 -10 -15 -9 0 -16 7 -16 15 0 19
-37 38 -62 32 -16 -5 -17 -3 -7 9 7 8 18 13 26 10 8 -4 13 2 13 17 0 13 5 28
12 35 9 9 9 15 0 24 -9 9 -12 7 -12 -10 0 -13 -6 -22 -15 -22 -20 0 -19 24 1
45 9 8 14 22 11 30 -3 7 3 25 14 39 16 21 26 24 56 20 20 -2 39 -7 42 -9z
m-287 -435 c10 -18 25 -30 38 -30 11 0 20 -4 20 -10 0 -5 5 -10 12 -10 6 0 39
-28 72 -63 34 -35 69 -66 79 -70 23 -9 22 -34 -3 -42 -30 -10 -58 3 -77 36 -9
16 -25 29 -34 29 -22 0 -43 26 -33 41 5 9 0 10 -19 5 -16 -4 -41 1 -69 13 -32
15 -37 20 -20 20 29 1 29 21 -1 21 -20 0 -24 5 -22 30 2 27 20 60 34 60 3 0
14 -14 23 -30z"/>
<path d="M6705 10120 c3 -5 14 -10 23 -10 27 0 90 -47 107 -80 21 -40 19 -68
-8 -115 -24 -41 -38 -46 -86 -31 -22 8 -23 6 -17 -18 4 -17 2 -26 -5 -26 -28
0 5 -15 38 -17 23 -1 42 4 56 18 12 11 23 15 25 9 2 -5 8 -10 14 -10 5 0 33
-20 60 -45 52 -47 86 -56 108 -30 7 9 20 13 28 10 18 -7 52 22 52 44 0 9 -14
35 -30 59 l-29 43 -7 -61 c-7 -66 -14 -75 -47 -66 -28 8 -96 96 -102 133 -18
113 -42 157 -103 187 -36 18 -87 22 -77 6z"/>
<path d="M6300 10011 c-48 -15 -109 -51 -120 -71 -11 -20 -9 -21 32 -14 66 12
168 10 214 -4 23 -7 67 -32 97 -57 70 -58 79 -57 22 3 -34 35 -41 48 -30 50
15 3 15 6 -1 23 -9 10 -23 19 -31 19 -8 0 -11 5 -8 10 7 11 -42 33 -55 25 -4
-3 -21 2 -36 10 -32 16 -46 17 -84 6z"/>
<path d="M4984 9919 c-71 -20 -131 -142 -87 -174 16 -12 19 -11 28 13 19 51
43 87 74 110 37 27 51 28 93 2 l33 -20 -30 0 c-29 0 -55 -15 -55 -31 0 -4 12
-10 26 -13 22 -6 25 -11 20 -31 -9 -35 15 -32 35 3 10 18 30 32 58 41 42 12
42 13 25 32 -21 24 -65 46 -124 65 -51 16 -53 16 -96 3z"/>
<path d="M6325 9863 c-11 -3 -31 -9 -44 -14 l-24 -9 35 -28 c20 -15 45 -42 58
-61 l22 -34 -45 7 c-41 6 -46 5 -52 -15 -12 -37 24 -73 77 -77 43 -3 46 -2 51
27 4 17 23 49 44 72 22 24 33 44 27 46 -7 2 -10 13 -7 24 4 15 2 18 -11 13
-11 -4 -15 -13 -11 -25 4 -11 2 -19 -4 -19 -6 0 -14 11 -17 26 -5 18 -1 29 11
38 19 14 21 13 -66 30 -13 2 -33 2 -44 -1z"/>
<path d="M6548 9668 c10 -19 37 -43 62 -56 39 -20 56 -23 126 -20 64 3 87 9
112 27 50 35 41 45 -35 37 -43 -4 -84 -2 -115 6 -39 10 -51 10 -57 0 -8 -13
-41 -6 -41 9 0 5 -9 9 -19 9 -11 0 -23 5 -26 10 -3 6 -10 10 -15 10 -5 0 -2
-15 8 -32z"/>
<path d="M6972 9635 c-13 -21 -31 -37 -49 -41 -15 -3 -42 -12 -60 -20 -17 -8
-55 -16 -84 -19 -28 -3 -55 -8 -59 -10 -10 -6 -120 14 -142 26 -14 7 -18 5
-18 -9 0 -41 46 -63 190 -93 52 -11 96 -22 99 -24 9 -10 -22 -33 -59 -44 -36
-10 -45 -10 -78 8 -20 10 -64 29 -97 41 -33 12 -68 26 -77 31 -10 5 -29 9 -43
9 -14 0 -33 8 -43 18 -10 10 -23 17 -29 15 -6 -2 -13 8 -17 22 -4 14 -14 25
-22 25 -14 0 -14 -2 -3 -16 8 -9 12 -27 11 -40 -2 -12 6 -41 18 -64 26 -52 21
-81 -21 -111 l-32 -22 -31 35 c-17 19 -44 60 -61 91 -23 44 -33 56 -47 51 -13
-4 -21 2 -27 19 -6 14 -15 28 -22 33 -9 5 -10 -6 -5 -47 l6 -54 -19 41 c-10
23 -24 44 -30 48 -5 4 -8 13 -4 21 8 23 -6 65 -22 65 -8 0 -15 4 -15 8 0 9
-59 32 -81 32 -11 -1 -10 -4 4 -14 32 -25 11 -46 -38 -36 -5 1 -4 -4 3 -11 20
-22 14 -24 -51 -24 -64 0 -73 -4 -126 -56 -42 -43 -56 -62 -58 -84 -2 -11 -5
-36 -9 -56 -3 -20 -1 -52 4 -72 6 -21 7 -37 4 -37 -4 1 -23 25 -42 55 -40 63
-60 71 -51 21 1 -4 -3 -13 -8 -20 -10 -12 56 -96 77 -96 17 0 15 -17 -3 -24
-17 -6 -22 -116 -5 -116 6 0 10 6 10 13 0 9 2 9 9 -1 6 -11 20 -11 67 -3 32 6
91 8 131 5 60 -4 79 -1 112 16 52 26 56 26 94 -10 31 -30 31 -31 13 -45 -20
-15 -56 -20 -113 -16 -43 3 -42 -6 2 -25 75 -31 135 -9 135 50 0 14 7 29 15
32 8 4 12 10 9 15 -3 5 8 9 24 9 16 0 35 7 42 15 7 8 17 15 23 15 15 0 117 81
117 92 0 6 -9 8 -20 4 -11 -3 -28 -8 -37 -11 -10 -3 -31 5 -47 18 l-30 24 50
0 c27 0 81 3 119 8 59 6 73 5 84 -9 20 -23 78 -21 86 3 8 26 32 33 145 41 75
5 97 3 103 -8 14 -22 34 3 48 59 l13 50 76 -2 c66 -2 75 0 79 17 3 18 28 43
43 44 4 0 8 -12 10 -27 2 -22 9 -27 34 -30 19 -2 38 3 51 15 33 28 11 65 -42
73 -44 7 -96 31 -115 54 -7 8 -19 15 -26 15 -8 0 -14 5 -14 10 0 6 14 10 30
10 36 0 38 9 7 38 -32 30 -42 28 -65 -13z"/>
<path d="M7665 9517 c-3 -7 -9 -65 -14 -128 l-8 -114 -2 83 c-1 62 -4 83 -13
80 -8 -3 -14 -25 -16 -52 -3 -40 -5 -46 -18 -35 -24 20 -27 3 -9 -50 11 -33
21 -48 30 -45 7 3 16 0 20 -6 11 -17 39 27 66 103 23 66 23 69 7 98 -10 17
-18 39 -18 49 0 24 -18 36 -25 17z"/>
<path d="M7066 9384 c-3 -8 4 -28 15 -43 16 -22 21 -43 21 -89 0 -54 2 -61 21
-64 11 -2 27 -17 36 -35 9 -18 22 -33 29 -33 6 0 12 -4 12 -10 0 -5 20 -10 45
-10 42 0 58 11 35 25 -18 11 -11 39 30 120 51 98 50 117 -9 128 -39 8 -46 6
-70 -16 -41 -39 -100 -46 -102 -13 0 6 -13 21 -29 33 -24 19 -29 21 -34 7z"/>
<path d="M7630 9178 c28 -74 40 -82 40 -25 0 31 4 47 13 47 13 0 52 -24 75
-47 30 -29 153 -102 189 -112 54 -15 106 -13 129 5 15 12 16 16 5 21 -7 3 -21
13 -30 22 -9 9 -38 18 -66 20 -71 5 -85 8 -105 26 -9 8 -20 15 -24 15 -3 0
-40 16 -80 35 -76 36 -126 45 -126 23 -1 -8 -6 -6 -14 5 -24 31 -26 18 -6 -35z"/>
<path d="M4094 8867 c-27 -13 -54 -53 -31 -44 23 9 29 -4 10 -25 -11 -12 -18
-41 -21 -81 l-3 -62 31 53 c20 35 37 52 50 52 11 0 40 5 65 12 l46 12 -7 41
c-3 22 -8 41 -9 43 -9 9 -113 9 -131 -1z"/>
<path d="M4523 7986 c-24 -5 -43 -15 -43 -22 0 -6 -9 -14 -21 -17 -11 -3 -23
-15 -26 -26 -3 -12 -12 -21 -19 -21 -8 0 -14 -6 -14 -14 0 -20 -45 -54 -85
-65 -42 -11 -75 -44 -75 -75 0 -32 26 -103 44 -121 8 -8 29 -40 46 -71 25 -43
37 -54 54 -52 13 2 19 9 17 18 -31 113 -23 150 30 150 23 0 32 -6 40 -27 6
-17 6 -28 0 -32 -6 -4 -6 -12 -1 -21 15 -23 12 -60 -4 -60 -8 0 -18 -5 -22
-11 -8 -14 43 -9 151 15 38 9 84 16 102 16 38 0 42 5 50 70 5 47 3 55 -33 107
-21 31 -40 64 -41 72 -2 26 -35 145 -44 162 -13 25 -58 36 -106 25z"/>
<path d="M9920 2865 c0 -8 7 -15 16 -15 14 0 14 -3 4 -15 -18 -22 -28 -18 -32
10 -3 23 -5 24 -28 12 -14 -8 -31 -12 -38 -9 -6 2 -14 -3 -17 -10 -4 -9 -19
-14 -40 -13 -23 0 -35 -4 -35 -12 0 -7 9 -13 19 -13 17 0 18 -3 8 -25 -7 -14
-15 -25 -19 -25 -5 0 -8 -4 -8 -10 0 -5 10 -10 23 -10 20 0 23 -4 19 -35 -2
-19 -9 -38 -14 -41 -5 -3 -2 -14 8 -25 14 -15 14 -21 4 -34 -10 -12 -16 -13
-26 -4 -19 15 -29 -12 -15 -39 7 -14 7 -24 -3 -37 -12 -17 -14 -17 -35 4 -26
26 -41 20 -41 -17 0 -19 3 -23 9 -13 6 9 10 10 16 2 4 -7 0 -23 -9 -36 -9 -13
-16 -31 -16 -39 0 -8 -6 -21 -14 -29 -18 -18 -22 -51 -12 -97 4 -21 3 -47 -3
-63 -9 -24 -14 -26 -30 -17 -27 14 -31 13 -31 -9 0 -11 -8 -26 -17 -33 -10 -7
-19 -28 -20 -47 -1 -18 -12 -49 -23 -69 -12 -19 -19 -40 -16 -47 3 -8 -2 -11
-15 -8 -14 4 -19 0 -19 -15 0 -12 5 -24 11 -28 6 -3 8 -16 5 -29 -3 -12 -1
-89 4 -170 9 -151 2 -209 -19 -152 -10 26 -31 38 -31 17 0 -5 -9 -10 -20 -10
-26 0 -34 -19 -21 -53 9 -24 13 -26 31 -15 14 9 22 10 31 1 8 -8 3 -15 -20
-27 -44 -23 -75 -7 -66 34 6 27 4 29 -47 43 -29 8 -69 13 -88 12 -19 -1 -40 2
-46 6 -16 13 -53 -1 -47 -17 3 -8 -5 -18 -19 -25 -12 -6 -32 -25 -43 -42 -11
-18 -29 -32 -40 -32 -20 -1 -23 -24 -4 -36 6 -3 10 -28 10 -55 -1 -27 3 -76 8
-109 5 -33 10 -71 11 -85 l1 -25 16 22 c24 36 35 28 28 -20 -5 -33 -3 -48 9
-60 21 -20 10 -47 -17 -44 -20 2 -22 -3 -21 -45 0 -27 -4 -48 -9 -48 -4 0 -6
-8 -3 -18 4 -11 -2 -27 -15 -41 -24 -25 -40 -18 -64 29 -11 22 -21 27 -52 28
-21 1 -58 6 -83 12 -25 6 -62 11 -83 12 -20 0 -40 4 -43 9 -3 5 -13 4 -23 -2
-13 -9 -25 -8 -49 5 -41 21 -52 20 -52 -3 0 -32 -19 -34 -31 -4 -8 21 -12 24
-19 13 -5 -8 -6 -18 -3 -23 3 -4 -3 -15 -13 -22 -21 -16 -35 -19 -32 -7 2 4 1
8 -2 9 -9 4 -50 -9 -50 -17 0 -4 -14 -6 -30 -5 -17 1 -33 -2 -36 -6 -3 -5 -20
-16 -39 -25 -19 -9 -35 -23 -35 -31 0 -8 -5 -11 -10 -8 -8 5 -7 11 1 21 20 25
2 27 -30 4 -32 -22 -42 -46 -15 -36 25 9 15 -64 -11 -78 -11 -6 -23 -15 -27
-21 -5 -6 -15 -5 -28 3 -12 7 -30 10 -40 7 -15 -5 -17 -2 -13 15 7 24 -11 26
-54 5 -27 -14 -34 -14 -59 0 -16 8 -35 15 -41 15 -22 0 -14 18 10 23 19 4 18
4 -5 6 -16 0 -38 11 -50 24 -18 17 -34 22 -76 22 -48 0 -55 3 -70 28 -9 15
-27 30 -40 34 -16 4 -22 12 -20 27 1 11 -1 27 -5 34 -10 16 -54 16 -60 0 -4
-9 -12 -5 -26 12 -24 30 -39 20 -23 -15 17 -38 15 -51 -5 -33 -10 9 -25 13
-33 11 -13 -4 -13 -3 0 6 13 10 12 13 -4 26 -32 24 -51 14 -24 -13 9 -9 8 -12
-5 -12 -9 0 -17 4 -17 9 0 16 -67 52 -84 45 -8 -3 -28 3 -43 14 -15 10 -41 22
-56 26 -25 6 -28 4 -25 -16 2 -14 -2 -23 -9 -22 -7 1 -31 2 -53 3 -41 1 -54
16 -22 24 9 3 0 5 -21 6 -34 1 -38 -1 -32 -19 5 -15 2 -20 -14 -20 -11 0 -23
4 -26 10 -10 16 -25 12 -19 -5 12 -29 -15 -46 -65 -39 -25 3 -62 6 -83 6 -27
1 -39 7 -49 25 -13 24 -29 31 -29 12 0 -8 -4 -8 -14 0 -8 7 -16 8 -19 4 -7
-12 11 -53 23 -53 5 0 10 -4 10 -8 0 -10 -70 -36 -77 -28 -4 3 -1 6 5 6 7 0
12 5 12 10 0 6 -11 10 -25 10 -14 0 -25 -4 -25 -9 0 -5 -19 -9 -42 -9 -79 0
-100 -4 -89 -15 6 -6 11 -14 11 -18 0 -11 -42 -23 -70 -20 -20 2 -23 0 -12
-10 20 -21 14 -34 -8 -14 -16 14 -24 15 -50 7 -22 -8 -38 -8 -56 0 -20 9 -27
9 -34 -2 -4 -7 -6 -19 -3 -26 5 -15 -44 -50 -55 -39 -4 4 3 14 16 22 29 20 28
33 -3 33 -15 0 -28 -7 -32 -18 -4 -9 -20 -29 -36 -45 -17 -16 -27 -33 -23 -42
4 -11 -1 -15 -19 -15 -18 0 -25 -5 -25 -20 0 -11 5 -20 10 -20 6 0 10 -5 10
-11 0 -6 -6 -9 -14 -6 -8 3 -17 3 -21 -1 -4 -4 -10 -7 -14 -7 -20 0 -72 -67
-103 -135 -6 -14 -22 -50 -36 -80 -80 -176 -100 -210 -124 -210 -24 0 -23 -4
10 -39 25 -28 129 -81 158 -81 23 0 64 -23 58 -32 -3 -5 -12 -4 -20 3 -8 6
-17 9 -21 5 -3 -3 -1 -6 5 -6 7 0 12 -6 12 -13 0 -9 10 -12 30 -9 17 2 30 10
30 18 0 10 12 14 38 14 l37 -1 -29 -12 -29 -13 27 -22 c16 -12 32 -19 37 -16
5 3 14 -7 19 -21 5 -14 14 -24 19 -20 5 3 11 -5 13 -17 4 -29 32 -35 160 -37
69 -1 98 3 101 12 4 9 6 9 6 0 1 -16 697 -19 703 -3 2 7 14 7 38 0 21 -6 211
-10 476 -10 409 0 442 1 448 17 6 15 8 15 16 3 9 -13 10 -13 10 0 0 8 17 34
38 58 29 33 44 42 70 42 22 0 32 5 32 15 0 19 9 19 32 -2 17 -15 18 -15 18 5
0 17 -6 22 -25 22 -14 0 -25 5 -25 10 0 13 13 13 44 -1 14 -7 23 -16 20 -21
-17 -27 51 -50 85 -29 17 11 -1 23 -23 15 -18 -7 -20 9 -6 41 9 19 9 19 16 -2
8 -27 22 -30 32 -5 4 9 16 18 27 20 11 2 29 4 40 6 13 2 22 12 25 31 5 27 30
49 30 26 0 -13 38 -52 71 -73 26 -17 27 -16 32 7 3 19 0 25 -14 25 -32 0 -49
12 -48 34 l0 21 9 -21 c9 -22 57 -27 53 -6 -4 15 29 3 44 -16 9 -11 16 -12 26
-4 8 7 18 7 27 2 20 -13 60 -13 60 0 0 6 -11 10 -25 10 -25 0 -25 1 -9 25 12
18 22 24 35 20 25 -8 26 26 2 66 -15 25 -15 31 -4 38 7 5 10 14 7 20 -4 6 0
14 8 17 9 3 16 12 16 19 0 7 6 18 14 24 7 6 11 22 9 35 -4 21 -2 24 16 19 14
-3 21 -1 21 8 0 11 12 13 45 11 30 -3 45 0 45 8 0 7 8 9 19 5 12 -3 30 4 49
20 27 22 35 24 53 15 12 -7 24 -8 28 -4 7 11 42 11 59 1 6 -5 12 -17 12 -28 0
-12 4 -17 11 -14 7 5 9 -3 7 -21 -2 -24 -8 -29 -30 -29 -20 -1 -28 4 -28 16 0
28 -18 32 -37 9 -18 -21 -43 -27 -43 -10 0 12 -20 13 -38 2 -9 -7 -10 -15 -3
-35 11 -29 35 -28 58 1 10 12 18 8 55 -30 47 -48 68 -80 68 -103 0 -8 3 -15 8
-15 11 0 31 -95 25 -119 -4 -15 -1 -21 11 -21 20 0 23 -69 4 -88 -9 -9 -9 -12
0 -12 7 0 12 -16 12 -40 l0 -40 51 0 51 0 -3 42 c-3 31 1 44 14 52 13 8 20 8
27 -4 9 -13 12 -13 21 3 5 9 14 17 18 17 13 0 31 -48 25 -67 -5 -17 -5 -17 9
0 13 15 15 16 21 2 3 -8 3 -22 0 -30 -5 -13 66 -15 610 -15 661 0 653 -1 591
48 -30 24 -46 63 -35 83 5 8 4 21 -1 29 -8 12 -15 9 -38 -18 -15 -17 -35 -32
-44 -32 -14 0 -16 8 -12 48 2 26 2 39 -1 29 -9 -27 -29 -14 -26 16 3 27 -17
57 -37 57 -6 0 -11 -8 -12 -17 -1 -10 -5 0 -10 22 -5 21 -7 45 -5 52 3 7 -1
10 -10 6 -7 -3 -14 0 -14 6 0 6 -5 11 -10 11 -7 0 -8 -13 -4 -35 6 -31 4 -35
-16 -35 -20 0 -21 3 -15 42 4 24 11 47 16 52 12 14 11 43 -2 52 -16 10 -30
-18 -17 -33 6 -8 8 -16 5 -19 -14 -14 -24 10 -36 78 -7 40 -15 83 -17 96 -3
12 -16 28 -29 34 -31 14 -40 39 -36 108 3 53 15 75 34 63 5 -3 6 12 2 37 -5
28 -4 40 3 36 9 -6 22 14 22 35 0 19 -49 -23 -52 -44 -2 -12 -12 -23 -22 -25
-15 -3 -17 0 -12 14 4 11 10 43 13 72 6 51 23 74 23 30 0 -16 3 -19 11 -11 7
7 8 22 0 49 -6 21 -7 42 -3 48 5 6 14 24 21 40 11 26 11 28 -4 16 -13 -11 -14
-10 -8 6 4 10 15 28 25 39 11 11 18 31 17 45 -2 43 0 50 24 60 12 5 16 9 10 9
-7 1 -13 10 -13 21 0 21 29 33 65 26 11 -2 26 1 32 6 9 7 15 3 22 -16 10 -24
13 -25 73 -20 46 4 66 11 76 25 11 16 17 17 28 8 11 -9 14 -8 14 5 0 27 18 9
25 -25 5 -24 10 -28 19 -19 8 10 8 14 -1 17 -22 8 -14 21 18 28 17 4 28 9 25
13 -3 3 1 13 10 23 13 15 20 16 35 6 10 -6 19 -17 19 -24 0 -7 9 -13 20 -13
12 0 20 -7 20 -16 0 -13 7 -15 30 -10 23 4 33 1 42 -14 7 -11 17 -20 23 -20 6
0 15 -10 20 -22 6 -14 19 -23 33 -24 26 -1 54 -34 43 -49 -9 -12 -7 -72 3 -82
11 -12 26 19 26 57 1 34 1 35 14 11 8 -14 16 -19 20 -13 3 6 2 13 -4 17 -5 3
-10 13 -10 21 0 12 6 11 27 -6 24 -19 28 -19 36 -5 5 9 6 27 3 41 -4 14 -2 24
4 24 5 0 10 8 11 18 0 13 2 13 9 -4 5 -12 22 -36 39 -53 17 -18 31 -36 31 -40
0 -5 10 -11 23 -15 15 -4 18 -9 10 -14 -8 -5 -9 -12 -2 -22 8 -13 11 -13 22 1
6 8 21 19 32 23 13 5 15 10 8 13 -7 3 -13 20 -13 39 0 32 2 34 20 24 11 -6 20
-17 20 -25 0 -16 9 -19 26 -7 19 12 76 141 70 157 -3 8 -1 15 5 15 6 0 8 7 5
16 -4 9 -2 22 3 28 11 13 9 41 -2 52 -4 4 -7 16 -7 26 0 10 -7 29 -15 41 -9
14 -11 27 -6 36 11 18 3 42 -21 59 -10 7 -18 22 -18 32 0 11 -9 24 -20 30 -11
6 -20 17 -20 25 0 8 -9 19 -20 25 -11 6 -20 17 -20 25 0 17 -69 84 -87 85 -15
0 -53 36 -53 49 0 5 -7 15 -16 22 -9 7 -20 23 -25 36 -6 17 -19 24 -50 29 -33
6 -43 13 -57 40 -8 19 -19 34 -23 34 -5 0 -20 20 -35 45 -14 25 -30 45 -35 45
-5 0 -9 8 -9 18 0 15 -2 15 -11 2 -8 -12 -10 -10 -5 9 6 28 -9 51 -32 51 -13
0 -12 -3 2 -19 12 -13 15 -25 9 -35 -7 -13 -12 -10 -26 17 -10 17 -31 40 -47
49 -17 9 -30 24 -30 33 0 10 -9 15 -26 15 -19 0 -28 7 -37 30 -9 23 -16 29
-30 24 -13 -4 -20 0 -24 15 -7 25 -30 28 -36 4 -3 -14 -6 -12 -15 10 -14 32
-40 46 -53 26 -7 -11 -9 -10 -9 4 0 11 -9 21 -19 24 -20 5 -38 40 -43 83 -2
17 -10 26 -25 28 -13 2 -23 9 -23 16 0 24 -55 66 -87 66 -18 0 -34 4 -38 10
-12 20 -133 70 -192 79 -34 5 -71 14 -82 20 -11 6 -26 9 -33 6 -18 -7 -42 10
-34 23 4 6 13 9 21 5 11 -4 13 -1 9 11 -8 20 -103 20 -111 0 -7 -19 -33 -18
-33 1 0 8 -10 20 -22 26 -13 7 -30 20 -39 30 -9 10 -20 15 -25 11 -5 -4 -4 -1
3 7 9 11 9 20 -3 42 -18 36 -46 51 -78 43 -18 -4 -27 -1 -36 15 -13 24 -30 28
-30 6z"/>
<path d="M1890 2470 c-13 -9 -13 -11 0 -20 12 -8 11 -10 -7 -10 -12 0 -26 7
-31 16 -8 15 -10 15 -15 0 -7 -17 -37 -22 -37 -6 0 6 -7 10 -15 10 -8 0 -15
-4 -15 -10 0 -5 5 -10 10 -10 6 0 10 -7 10 -15 0 -9 -6 -15 -12 -14 -7 1 -24
1 -38 0 -20 -1 -22 -3 -10 -11 13 -9 13 -10 0 -10 -8 0 -28 -7 -44 -15 -16 -9
-38 -12 -54 -8 -18 4 -29 1 -38 -11 -9 -14 -20 -16 -43 -11 -17 4 -31 11 -31
15 0 5 -7 7 -15 4 -8 -4 -22 -1 -30 6 -9 8 -15 8 -15 2 0 -6 -3 -17 -6 -26 -4
-11 0 -16 12 -16 15 0 16 -2 5 -9 -8 -5 -20 -7 -27 -4 -8 3 -17 -10 -24 -37
-9 -34 -14 -39 -25 -30 -12 10 -16 9 -21 -4 -9 -24 -23 -19 -17 7 3 13 -4 6
-19 -18 -13 -22 -33 -44 -46 -50 -12 -5 -22 -14 -22 -19 0 -5 -7 -17 -15 -26
-9 -10 -18 -40 -22 -69 -5 -46 -12 -56 -35 -52 -18 3 -6 -21 12 -26 11 -3 19
-12 18 -21 -2 -9 8 -21 20 -28 29 -14 13 -27 -23 -18 -20 5 -25 3 -25 -12 0
-16 2 -17 10 -4 9 13 11 13 20 0 5 -8 10 -20 10 -27 0 -17 15 -24 34 -17 9 3
16 17 16 30 0 31 42 53 64 35 19 -16 29 0 20 34 -7 27 6 34 24 12 14 -16 4
-57 -14 -57 -18 0 -27 -17 -17 -32 4 -7 8 -20 8 -28 0 -22 42 -25 53 -3 8 14
20 18 49 17 23 -2 45 4 56 13 23 21 33 9 19 -22 -13 -29 -8 -32 15 -9 9 8 21
13 28 10 8 -3 16 2 19 10 3 9 11 12 17 9 8 -5 8 -10 0 -18 -15 -15 -14 -27 4
-27 9 0 15 10 15 26 0 19 4 25 15 20 8 -3 15 -1 15 4 0 5 7 7 15 4 11 -5 13
-10 5 -19 -8 -9 -6 -17 5 -28 8 -9 16 -26 16 -39 1 -17 3 -18 6 -5 5 20 19 23
26 5 3 -10 7 -10 20 1 15 12 17 11 17 -13 0 -16 -6 -26 -14 -26 -8 0 -17 -4
-20 -9 -3 -5 8 -8 25 -7 30 2 30 1 23 -28 -4 -17 -6 -43 -6 -58 1 -19 -9 -34
-33 -54 -19 -15 -35 -32 -35 -38 0 -19 -52 -85 -72 -92 -11 -3 -38 -24 -59
-45 -31 -31 -35 -39 -20 -39 10 0 21 7 25 15 3 8 10 15 16 15 6 0 4 -12 -5
-30 -8 -16 -19 -29 -23 -29 -4 1 -17 -2 -30 -6 -19 -6 -22 -13 -18 -31 6 -22
3 -24 -29 -24 -45 0 -75 -15 -75 -38 0 -14 2 -15 10 -2 12 19 22 8 14 -14 -4
-9 -19 -20 -35 -23 -31 -6 -32 -7 -29 -70 1 -39 -1 -43 -23 -43 -21 0 -27 -8
-42 -62 -9 -34 -19 -68 -22 -75 -4 -9 0 -11 12 -7 13 5 16 2 13 -17 -3 -26
-38 -40 -38 -16 0 8 -7 18 -16 21 -8 3 -13 2 -9 -3 5 -9 -22 -70 -36 -81 -4
-3 -10 -15 -13 -28 -4 -13 -20 -36 -34 -52 -15 -16 -40 -45 -57 -64 -18 -21
-39 -36 -52 -36 -13 0 -23 -6 -23 -13 0 -7 -9 -18 -20 -25 -12 -7 -18 -17 -15
-23 4 -5 1 -25 -5 -45 -9 -26 -15 -33 -23 -25 -8 8 -6 19 6 41 17 29 17 30 0
30 -11 0 -24 5 -29 10 -7 7 -19 7 -35 1 -23 -9 -23 -10 9 -10 19 -1 32 -6 32
-13 0 -15 -20 -48 -20 -34 0 11 -30 -14 -30 -25 0 -5 8 -9 18 -10 14 0 14 -2
-3 -8 -11 -5 -25 -4 -32 1 -20 16 -63 1 -63 -22 0 -26 -19 -35 -27 -13 -4 10
-13 24 -20 31 -7 7 -13 22 -13 33 0 10 -4 19 -10 19 -14 0 -12 -17 5 -44 14
-20 13 -26 -1 -54 -8 -17 -20 -34 -25 -38 -5 -3 -7 -14 -4 -24 3 -10 1 -21 -5
-25 -5 -3 -10 0 -10 8 0 8 -10 17 -22 21 -33 8 -34 8 -46 -19 -7 -15 -8 -25
-2 -25 6 0 10 -11 10 -25 0 -32 -13 -32 -30 0 -12 22 -12 30 3 54 22 37 21 43
-3 70 -13 16 -17 32 -13 51 4 23 0 31 -21 45 -16 11 -26 26 -26 41 l0 24 20
-20 c11 -11 25 -20 30 -20 6 0 10 -12 11 -27 l1 -28 8 29 c10 32 6 46 -13 46
-7 0 -21 11 -31 25 l-20 26 -22 -28 c-13 -15 -23 -34 -24 -40 0 -18 -47 -16
-54 2 -3 9 0 15 9 15 8 0 15 -5 15 -12 0 -6 3 -9 6 -5 4 3 -3 18 -14 32 l-20
25 -7 -42 c-6 -34 -4 -44 11 -55 13 -10 14 -13 3 -13 -12 0 -12 -2 1 -11 12
-9 11 -10 -7 -6 -17 4 -23 1 -23 -13 0 -21 -31 -80 -42 -80 -5 0 -8 9 -8 19 0
14 -6 19 -20 18 -20 -1 -29 -17 -10 -17 5 0 7 -7 4 -15 -4 -9 0 -15 10 -15 19
0 20 -9 2 -32 -17 -23 -27 -23 -19 -1 4 11 3 14 -6 9 -7 -5 -10 -14 -7 -22 8
-22 -4 -44 -25 -44 -10 0 -19 -4 -19 -9 0 -5 -8 -12 -19 -16 -10 -3 -18 -13
-17 -23 1 -13 -6 -16 -25 -14 -29 3 -54 -20 -46 -42 4 -9 -1 -17 -12 -21 -10
-3 -22 -21 -27 -42 -9 -37 -49 -71 -86 -72 -10 -1 -18 -9 -18 -19 0 -10 -5
-23 -12 -30 -6 -6 -13 -17 -14 -24 -1 -7 -3 -20 -5 -28 -4 -13 138 -15 1219
-18 l1222 -2 -5 22 c-14 65 -35 258 -35 327 0 145 41 319 130 550 30 78 50
102 50 61 0 -11 33 -86 74 -167 41 -82 79 -166 86 -188 7 -22 26 -59 41 -82
20 -29 25 -43 16 -46 -6 -3 -2 -6 10 -6 15 -1 25 -9 29 -26 3 -14 13 -25 21
-25 8 0 13 -5 11 -11 -4 -13 127 -149 144 -149 15 0 78 -69 78 -85 0 -7 6 -18
14 -24 11 -9 15 -8 20 4 7 20 75 11 93 -13 11 -14 15 -14 33 3 19 18 20 18 20
-3 0 -16 6 -22 21 -22 13 0 20 6 18 18 -3 32 1 43 12 36 8 -4 7 -9 -2 -15 -9
-6 6 -7 39 -5 43 4 52 2 52 -11 0 -11 6 -14 20 -10 13 3 25 -1 31 -11 11 -18
82 -22 127 -8 17 6 22 3 22 -9 0 -11 6 -15 18 -11 9 3 69 7 132 7 102 2 120 5
158 26 39 22 51 24 125 19 45 -4 97 -9 116 -11 23 -3 40 0 52 11 13 12 28 15
49 10 18 -3 29 -2 25 3 -8 14 20 18 134 19 80 1 107 5 121 17 13 12 36 16 91
15 93 -2 132 3 137 19 3 8 24 10 75 6 122 -10 424 41 435 74 2 7 9 8 22 1 23
-12 34 1 25 31 -9 28 12 76 36 82 10 3 19 1 19 -5 0 -5 4 -7 9 -3 5 3 13 1 16
-5 5 -8 11 -8 20 0 8 7 19 9 25 5 5 -3 10 -2 10 3 0 6 -7 13 -16 16 -8 3 -12
10 -9 16 9 15 35 12 35 -4 0 -22 19 -29 27 -10 4 11 -1 22 -12 30 -18 14 -18
14 1 14 11 0 24 -4 29 -9 23 -23 64 39 72 109 5 46 7 48 41 54 20 3 38 3 40 1
9 -9 -22 -36 -35 -31 -25 10 -13 -13 15 -28 15 -8 21 -15 13 -16 -10 0 -11 -3
-2 -14 19 -22 71 0 106 45 17 22 35 45 41 52 18 21 34 55 34 74 1 10 10 36 21
58 l20 40 -5 -50 c-6 -59 -46 -155 -77 -184 -12 -11 -27 -30 -33 -43 -6 -12
-21 -28 -33 -34 l-23 -11 29 -21 c24 -18 30 -19 35 -7 3 8 9 15 13 15 12 0 13
-52 2 -72 -5 -10 -6 -18 -1 -18 14 0 32 23 32 40 0 9 14 30 30 46 17 16 37 44
45 61 8 18 19 33 24 33 15 0 14 -22 -3 -45 -16 -25 -30 -74 -27 -99 2 -10 -3
-22 -10 -27 -10 -6 -10 -13 -1 -34 10 -22 18 -26 45 -23 27 3 36 11 59 53 18
34 24 53 17 61 -5 7 -6 14 -1 16 14 5 52 74 52 94 0 11 12 42 25 69 17 34 25
67 25 105 0 74 8 100 31 100 11 0 28 9 39 20 22 22 49 18 30 -5 -8 -10 -4 -14
15 -17 37 -7 41 9 11 41 -14 15 -26 36 -26 47 -1 18 -1 18 -11 1 -15 -26 -27
-20 -35 18 -3 19 -11 35 -18 35 -16 0 -37 -37 -30 -55 4 -10 0 -15 -15 -15
-15 0 -21 -6 -21 -21 0 -16 4 -19 21 -14 15 5 19 4 14 -4 -4 -7 -20 -9 -38 -6
-37 6 -82 -27 -92 -68 -7 -25 -50 -53 -59 -38 -3 5 3 16 14 26 11 10 20 23 20
30 0 7 9 20 20 30 11 10 17 22 14 26 -7 11 -47 12 -59 1 -18 -15 -67 -33 -60
-22 4 6 -10 4 -30 -4 -43 -19 -72 -20 -77 -6 -4 12 -78 -15 -78 -29 0 -4 -11
-13 -25 -19 -17 -8 -25 -8 -25 -1 0 6 -6 7 -12 2 -43 -26 -72 -3 -64 51 3 23
1 82 -5 131 -22 188 -27 242 -31 308 -2 42 -8 71 -16 76 -8 5 -11 17 -7 34 9
32 -2 52 -19 38 -7 -6 -11 -24 -8 -41 3 -19 0 -30 -7 -30 -7 0 -9 -4 -6 -10 3
-5 15 -10 26 -10 10 0 19 -5 19 -11 0 -6 -7 -8 -16 -5 -13 5 -15 1 -10 -19 4
-14 2 -25 -4 -25 -5 0 -10 5 -10 12 0 17 -29 -24 -30 -42 0 -9 -14 -20 -32
-25 -30 -9 -33 -13 -30 -43 2 -24 -1 -32 -12 -32 -9 0 -16 8 -16 19 0 29 -21
37 -37 15 -13 -18 -15 -18 -24 -1 -14 25 -29 21 -29 -7 0 -32 -18 -43 -22 -14
-2 18 -9 22 -30 20 -38 -4 -44 14 -13 41 l26 22 -35 16 c-36 17 -51 8 -18 -10
15 -8 12 -12 -18 -24 -19 -8 -44 -18 -55 -22 -11 -5 -23 -9 -27 -9 -4 -1 -13
-7 -20 -13 -16 -17 -40 -16 -64 2 -27 20 -55 18 -61 -5 -4 -16 -9 -18 -24 -9
-25 13 -39 4 -39 -27 0 -22 -4 -24 -44 -24 -25 0 -48 -5 -51 -11 -9 -14 -133
-1 -162 17 -28 18 -83 8 -82 -15 0 -10 2 -11 6 -3 8 20 33 14 33 -8 0 -16 -7
-20 -30 -20 -16 0 -30 5 -30 10 0 6 -13 10 -30 10 -20 0 -30 5 -30 15 0 16
-18 19 -38 6 -11 -6 -10 -11 3 -25 9 -9 21 -16 26 -16 5 0 9 -9 9 -20 0 -11
-5 -20 -11 -20 -5 0 -7 5 -3 11 5 9 -3 10 -30 5 -25 -5 -36 -3 -36 5 0 7 -2
10 -5 7 -3 -3 -1 -17 4 -31 8 -20 7 -25 -2 -21 -7 2 -17 -6 -22 -18 -17 -37
-35 -34 -35 6 0 23 -7 42 -21 55 -19 18 -20 22 -8 55 7 20 18 36 25 36 10 0
23 29 24 53 0 4 -14 7 -31 7 -31 0 -32 0 -27 -45 5 -42 -4 -62 -15 -32 -8 21
-32 -10 -32 -41 0 -16 -5 -26 -12 -24 -17 3 -16 -3 3 -22 14 -15 14 -17 -1
-22 -9 -4 -28 -1 -42 7 -22 12 -27 11 -38 -4 -7 -9 -22 -17 -34 -17 -23 0 -27
-10 -10 -27 7 -7 7 -13 1 -17 -11 -7 -105 37 -98 45 3 3 -47 4 -110 3 -107 -3
-148 -10 -116 -21 6 -3 12 -9 12 -15 0 -6 -7 -7 -16 -4 -9 3 -36 -1 -60 -9
-52 -18 -88 -20 -79 -4 4 6 14 8 22 5 9 -4 13 -1 10 6 -6 19 -48 9 -69 -15
-12 -14 -18 -16 -18 -6 0 15 -75 25 -84 10 -3 -4 -35 -7 -72 -5 -53 2 -69 7
-80 22 -10 15 -25 20 -58 20 -36 0 -52 -6 -84 -34 -23 -19 -43 -31 -46 -26 -6
10 -42 9 -52 -1 -4 -3 5 -11 19 -16 18 -7 25 -15 21 -26 -5 -12 -9 -13 -21 -4
-10 9 -17 9 -25 1 -7 -7 -18 -12 -25 -12 -18 0 -16 27 3 34 28 11 4 25 -36 21
-26 -2 -45 1 -54 11 -8 8 -21 14 -29 14 -8 0 -20 6 -26 14 -19 23 -61 29 -87
11 -22 -14 -24 -14 -24 3 0 10 5 23 12 30 7 7 8 12 2 12 -17 0 -64 -25 -64
-33 0 -5 -9 -20 -20 -34 -11 -14 -20 -34 -20 -45 0 -11 -5 -18 -12 -15 -8 2
-12 16 -10 34 2 17 -1 34 -7 38 -6 3 -11 19 -11 36 0 16 -4 29 -9 29 -6 0 -23
12 -38 26 -23 22 -29 23 -31 10 -2 -10 1 -23 7 -30 15 -17 4 -45 -15 -42 -23
3 -34 27 -23 48 12 23 -19 77 -33 56 -5 -8 -6 -2 -2 15 4 19 3 27 -6 25 -29
-7 -118 284 -140 459 -7 48 -21 122 -32 163 -13 52 -21 121 -25 224 -3 81 -9
143 -13 136 -8 -14 -34 45 -44 103 -4 22 -14 41 -24 44 -9 4 -22 13 -28 21 -9
13 -12 12 -17 -7 -3 -11 -10 -21 -16 -21 -13 0 4 40 23 52 6 5 1 8 -12 8 -19
0 -22 4 -17 28 6 26 6 26 -9 8 -9 -11 -16 -24 -16 -30 0 -6 -7 0 -16 12 -8 12
-24 22 -34 22 -24 0 -37 20 -13 21 14 0 15 2 3 6 -8 3 -17 10 -21 14 -3 5 -27
12 -55 15 -27 4 -51 10 -54 13 -13 16 -51 30 -65 25 -8 -3 -15 -1 -15 5 0 14
-10 14 -30 1z"/>
<path d="M1086 1864 c-4 -10 -1 -21 6 -25 7 -4 9 -12 4 -16 -5 -4 -11 -2 -13
5 -8 21 -32 13 -39 -13 -7 -27 -31 -34 -40 -11 -5 12 -9 11 -25 -5 -10 -10
-19 -26 -19 -34 0 -8 -6 -24 -12 -35 -11 -17 -10 -22 2 -30 8 -6 23 -8 32 -6
23 5 34 -12 18 -27 -10 -9 -14 -9 -17 1 -3 6 -12 12 -21 12 -15 -1 -15 -2 1
-14 9 -7 17 -17 17 -21 0 -4 14 -25 31 -46 23 -29 35 -37 43 -30 9 7 16 7 24
-1 9 -9 15 -9 23 -1 8 8 4 16 -13 28 l-23 17 25 -7 c14 -3 32 -7 40 -7 8 -1
20 -8 27 -17 11 -14 12 -12 13 11 0 15 5 30 10 33 6 3 10 14 10 24 0 10 11 26
25 35 31 20 33 46 4 46 -18 0 -19 2 -9 15 7 8 9 15 4 15 -4 0 7 13 26 30 36
30 22 44 -16 15 -26 -20 -41 -19 -47 5 -3 14 -14 20 -31 20 -15 0 -26 6 -26
14 0 7 -6 19 -14 25 -11 9 -15 8 -20 -5z"/>
<path d="M5543 1817 c-3 -5 2 -16 11 -23 16 -11 16 -13 -1 -23 -14 -8 -14 -10
-3 -11 13 0 13 -2 1 -9 -8 -5 -29 -7 -46 -4 -20 3 -35 0 -40 -7 -6 -9 0 -11
24 -8 23 3 31 1 27 -8 -3 -7 3 -15 12 -17 15 -3 15 -5 -2 -12 -13 -6 -21 -4
-24 3 -4 14 -52 16 -52 3 0 -6 5 -13 10 -16 6 -3 10 -16 10 -27 0 -12 3 -18 6
-15 10 10 44 -12 44 -28 0 -18 16 -20 23 -2 4 9 8 8 16 -3 15 -22 8 -35 -17
-32 -15 2 -22 -2 -22 -12 0 -9 5 -16 10 -16 7 0 7 -6 1 -18 -6 -11 -5 -27 4
-47 12 -27 13 -27 14 -7 1 12 6 22 11 22 12 0 12 -2 0 -34 -7 -20 -6 -26 4
-26 14 0 19 46 30 280 l5 105 -25 1 c-13 1 -27 -3 -31 -9z"/>
<path d="M6266 1571 c-4 -5 -2 -11 3 -13 16 -6 -8 -48 -28 -48 -27 0 -35 17
-11 23 11 3 20 10 20 15 0 18 -58 -11 -64 -31 -4 -15 -10 -18 -28 -13 -45 14
-98 18 -98 9 0 -5 5 -14 12 -21 9 -9 6 -12 -14 -12 -28 0 -42 -21 -39 -58 2
-13 -9 -39 -24 -58 -15 -20 -24 -38 -21 -41 3 -4 12 2 20 12 8 11 15 14 19 8
5 -7 20 -8 44 -3 21 5 44 5 54 -1 30 -16 44 -11 26 9 -10 10 -14 22 -10 25 11
12 23 8 23 -8 0 -19 20 -19 48 1 29 20 31 58 2 49 -14 -4 -20 -2 -20 8 0 20
23 37 56 43 36 7 44 12 44 30 0 8 11 27 25 42 14 15 25 30 25 34 0 11 -58 10
-64 -1z"/>
</g>
</svg>
